<svg xmlns="http://www.w3.org/2000/svg" width="348" height="78" fill="none" class="h-auto w-full"><path fill="url(#titieINDsights_svg__a)" d="M4.501 59.371c1.913.635 5.427.501 6.37-.201-2.124-.084-4.248-.403-6.37.201m335.16-32.647c-.254.053-.506.144-.762.155-2.432.103-4.866.164-7.297.304-.575.033-1.32.145-1.668.518-.841.9-1.832 1.048-2.954 1.11-1.534.083-1.78.308-2.635 1.97 1.92 1.105 4.049.346 5.997.742l-1.062.851c1.009.37 1.763.842 2.547.899 2.168.156 4.349.14 6.523.195.605.015 1.219-.013 1.814.076 1.551.233 2.969-.214 4.569-.665l-.854-1.077h3.611c-.529 1.941-.671 2.066-2.481 2.13-1.514.053-3.029.079-4.541.169-.538.033-1.127.105-1.59.35-1.806.961-3.725.992-5.682.847-.301-.022-.668-.201-.888-.086-1.738.906-3.604.261-5.378.523-1.265.187-2.479.72-3.716 1.099l.01.426c.653.147 1.304.304 1.958.44 2.529.522 4.978 1.344 7.663 1.105 2.53-.226 5.097-.05 8-.05-.523.28-.748.49-.994.517-2.537.286-5.076.57-7.619.789-.78.067-1.577-.075-2.367-.108-.909-.038-1.832-.176-2.725-.072-3.625.424-7.239.943-10.861 1.384-1.141.139-2.301.12-3.449.217s-2.307.165-3.429.4c-.86.18-1.541.697-1.418 1.974 3.834.148 7.616-.188 11.667-.553-.936 1.245-2.156 1.264-3.178 1.398-5.243.683-10.501 1.245-15.752 1.853-.241.027-.504.02-.713.12-.196.095-.477.32-.467.471.018.262.174.638.379.732.363.166.806.207 1.217.212 1.698.02 3.396.009 5.222.009l-.9 1.888c1.487.786 2.962.31 4.371.403 1.363.09 2.738.02 4.118.247-3.312.866-6.836.062-10.075 1.305-.18 1.013.27 1.332 1.085 1.345 1.34.02 2.679.074 4.018.072 3.533-.006 7.066-.065 10.598-.036.962.009 1.918.269 2.882.386 1.325.162 2.653.425 3.979.42 4.622-.015 9.243-.138 13.864-.189.712-.008 1.427.142 2.145.388-2.264.837-4.663.512-6.977.85-2.367.342-4.763.483-7.147.713l-.035.487c.415.085.83.241 1.246.243 3.034.008 6.069-.033 9.105-.02 1.496.006 3.025-.227 4.809.505l-10.644.72c.2 1.723-.901 2.154-2.294 2.334a247 247 0 0 0-6.318.903c-.899.14-1.808.302-2.666.592-.501.17-.91.612-1.294 1.145 1.742.616 3.469.366 5.323.388-.368.9-1.083.864-1.663.924-1.999.203-4.006.324-6.005.52-.783.078-1.565.233-2.321.443-.207.057-.46.46-.438.677.023.223.335.552.563.59.713.122 1.445.13 2.505.204-2.19 1.046-4.335.85-6.319 1.351-1.939.49-3.868 1.02-5.783 1.703 1.412.593 2.81.271 4.236.092a16.8 16.8 0 0 1 4.589.068c-.256.135-.506.371-.77.387-2.116.128-4.256.067-6.351.344-5.973.79-12.003.5-17.984 1.145-11.391 1.227-22.843 1.503-34.279 1.99-2.189.093-4.383.014-6.574.055-.782.015-1.561.149-2.341.233-.295.032-.591.123-.882.109-1.69-.086-3.38-.273-5.07-.282-6.881-.033-13.763.003-20.645-.024-2.972-.011-5.944-.111-8.916-.167-.244-.004-.498-.013-.728.05-3.653 1.006-7.38.384-11.068.448-9.622.166-19.247.186-28.87.258-6.579.05-13.159.083-19.738.133-4.377.034-8.755.095-13.134.12q-13.697.084-27.393.134c-4.081.016-8.162-.029-12.243-.002-.95.006-1.9.19-2.85.293-.233.91.1 1.368.763 1.53.583.143 1.203.161 1.808.183 4.017.142 8.034.267 12.052.409.215.008.427.107.642.516-1.936.134-3.873.378-5.809.379-4.99.004-9.98-.09-14.972-.163-3.527-.051-7.058-.055-10.58-.216-5.832-.266-11.667-.55-17.487-1.002-4.912-.38-9.802-1.037-14.707-1.527-7.508-.752-15.022-1.457-22.53-2.201-1.453-.143-2.899-.358-4.343-.572-.392-.058-.767-.237-1.15-.36l-.005-.375c.663-.046 1.334-.173 1.991-.125 2.909.214 5.814.48 8.72.729.12.01.243.075.359.062 1.835-.18 3.67-.37 5.457-.553-.863-.675-3.027-1.049-7.05-1.349-2.549-.19-5.083-.543-7.627-.804-2.433-.249-4.87-.474-7.305-.709l-.011-.422 4.597-.39c-1.34-1.684-3.156-.484-4.662-1.288 1.554-.642 3.179.07 4.583-.93-1.17-.757-2.33-.435-3.442-.501a32 32 0 0 1-3.444-.38c-1.066-.18-2.218.547-3.224-.361 4.87-.004 9.68-.65 14.532-.74l.049-.454c-.275-.162-.534-.426-.828-.47a61 61 0 0 0-3.93-.476c-2.657-.226-5.264-.835-7.966-.761-1.876.05-3.76-.317-5.643-.431-1.408-.086-2.503-.633-3.407-1.962.424-.184.761-.439 1.115-.465 2.424-.187 4.85-.323 7.276-.479 1.76-.113 3.476-.21 4.977-1.429.58-.47 1.595-.487 2.426-.56 4.782-.411 9.567-.794 14.353-1.158 3.393-.257 6.79-.499 10.187-.684 1.024-.056 2.06.143 3.09.153 1.15.01 2.304-.023 3.45-.112.701-.054 1.264-.376 1.324-1.485l-8.403-.501c.867-1.312 2.143-1.798 3.601-1.965 3-.343 5.973-.964 9.02-.846.502.02 1.01-.12 1.516-.187l.023-.357c-.291-.112-.59-.335-.873-.318-1.876.11-3.748.277-5.622.416-3.517.262-7.034.534-10.554.773-1.818.124-3.64.272-5.459.254-1.82-.019-3.643-.162-5.25-1.23-.32-.212-.817-.16-1.231-.234-3.528-.635-7.057-1.268-10.582-1.917-.146-.026-.264-.207-.431-.345.615-.686 1.23-.247 1.862-.149 2.201.341 4.418.852 6.617-.008.476-.187.91-.48 1.34-.935-4.326-.037-8.534-.59-12.726-1.72.377-.101.747-.25 1.129-.29.605-.065 1.222-.014 1.825-.092.737-.094 1.749.222 1.998-.83.244-1.028-.87-.974-1.372-1.413-.039-.034-.054-.093-.106-.184l1.333-1.011-2.25-.562c.193-.333.293-.765.509-.835.865-.276 1.768-.43 2.655-.644 1.927-.465 3.852-.938 6.002-1.462-.759-.958-1.636-1.108-2.284-.99-1.086.195-2.363-.15-3.249.87-.097.11-.4.074-.603.055-.277-.025-.604-.224-.817-.133-2.675 1.143-5.382.507-8.06.111-.822-.122-1.575-.718-2.544-1.186 1.94-.826 5.305-1.501 6.792-1.447 1.03.038 1.977-.242 3.283-.887-2.173-.644-3.96.174-5.907-.067.842-1.155 1.795-1.966 3.07-2.165 1.854-.29 2.634-1.932 4.07-2.724l-.09-.404c-.981-.05-2.004.048-2.934-.196-.911-.237-1.73-.824-2.633-1.282l.88-2.49c-1.47-.703-1.997 1.332-3.342 1.019l-.942-1.373c.688-2.637 3.293-3.195 5.25-4.467q-.079-.165-.161-.328c-.266-.025-.534-.085-.797-.066-.292.02-.577.113-.959.193l-.827-2.279c1.202-.48 2.377-.945 3.547-1.423 1.072-.44 2.457.386 3.423-.828-.508-.882-1.377-.73-2.106-.818-.682-.082-1.383-.018-2.152-.317 1.815-.763 3.668-1.445 5.436-2.303 3.909-1.897 8.199-2.262 12.355-3.117A382 382 0 0 1 48.053 4.32c5.832-.925 11.68-1.793 17.553-2.4 6.045-.626 12.125-.897 18.19-1.343 1.173-.087 2.224.457 3.478.316 1.957-.219 3.98.195 5.978.257 1.085.033 2.18-.06 3.261-.183 2.295-.263 4.583-.587 6.875-.878.3-.038.68-.16.898-.032 1.803 1.06 3.696.304 5.547.327.69.007 1.38 0 2.071 0l.058.37q-1.042.496-2.084.994l.059.364c.797.05 1.597.076 2.391.155.783.078 1.558.286 2.34.306 2.611.07 5.225.149 7.835.097 3.582-.071 7.161-.307 10.744-.378 2.476-.05 4.956.058 7.433.094.244.004.489.015.729-.01 5.39-.577 10.786-.585 16.195-.3 2.033.107 4.082-.102 6.125-.119 4.729-.037 9.458-.045 14.188-.063.244-.002.492-.02.73.018 7.738 1.225 15.552.828 23.333 1.048 12.358.348 24.72.58 37.08.832 3.282.067 6.566.03 9.849.028 1.305-.001 1.537.264 1.52 1.546-.005.349.324.702.541 1.134-.219.019-.603.054-.985.086-1.693.144-3.385.281-5.076.436-.237.023-.517.063-.693.201-1.661 1.3-3.506.988-5.357.645-.762-.14-2.47.34-3.382.794-.369.183-.963.18-1.352.016-1.211-.51-2.429-.723-4.051-.487l-.608 1.602c.912.13 1.677.32 2.447.336 8.582.18 17.164.298 25.745.513 2.734.068 5.458.466 8.192.559 4.317.146 8.641.12 12.959.25 2.184.067 4.361.371 6.545.473q7.025.326 14.054.546c5.356.168 10.714.286 16.072.413 1.201.028 2.402.004 3.536.004.383.779.195 1.216-.504 1.338-.474.084-.973.02-1.454.08-.298.04-.582.192-.855.448 1.982.733 4.095.039 6.073.48l.008.436c-.751.1-1.5.24-2.255.292-2.477.17-4.957.302-7.434.464-.422.027-.869.06-1.252.217-2.089.853-4.293.9-6.478.817-4.02-.154-7.995.312-11.984.628-1.515.12-3.044.03-4.565.091-.556.022-1.104.203-1.657.311l.006.392c.307.103.609.285.918.296 5.586.2 11.173.376 16.759.57.79.028 1.58.2 2.366.175 1.086-.034 1.934.416 2.445 1.27.39.65.838.759 1.489.753a74 74 0 0 1 3.467.072c.877.035 1.813-.174 2.438.811.163.258.782.268 1.2.32 1.446.18 2.904.51 4.339.44 1.772-.088 3.034.884 4.35 1.7.678.421 1.279.549 2.022.576 3.528.127 7.054.3 10.58.462.204.01.407.073.611.112q.005.143.012.286"></path><defs><linearGradient id="titieINDsights_svg__a" x1="0.51" x2="319.924" y1="78" y2="-62.616" gradientUnits="userSpaceOnUse"><stop offset="0.298" stop-color="#E04A00"></stop><stop offset="1" stop-color="#FF915C"></stop></linearGradient></defs></svg>