<svg width="114" height="22" viewBox="0 0 114 22" fill="none" xmlns="http://www.w3.org/2000/svg">
<path d="M4.51521e-05 17.5612L3.05795 2.27162H7.38271L4.3248 17.5612H4.51521e-05ZM7.40165 17.5612L10.4596 2.27162H14.0198L20.2012 12.4938L18.7159 12.4501L20.7472 2.27162H24.9846L21.9267 17.5612H18.3664L12.2069 7.33901L13.6704 7.38269L11.639 17.5612H7.40165ZM24.9991 17.5612L28.057 2.27162H34.6971C36.2988 2.27162 37.6676 2.53372 38.8034 3.05793C39.9538 3.58215 40.8347 4.32478 41.4463 5.28584C42.0579 6.23234 42.3637 7.36813 42.3637 8.69322C42.3637 10.0474 42.1307 11.2706 41.6647 12.3627C41.1988 13.4403 40.5435 14.3722 39.6989 15.1585C38.8544 15.9303 37.8496 16.5273 36.6847 16.9496C35.5198 17.3573 34.2311 17.5612 32.8186 17.5612H24.9991ZM30.0228 14.1101H32.9497C34.0418 14.1101 34.9592 13.8844 35.7018 13.433C36.4444 12.9816 37.0123 12.37 37.4055 11.5982C37.7987 10.8119 37.9952 9.93095 37.9952 8.95533C37.9952 8.27094 37.8496 7.68848 37.5584 7.20795C37.2817 6.72742 36.8594 6.36339 36.2915 6.11584C35.7382 5.85374 35.0465 5.72268 34.2165 5.72268H31.6828L30.0228 14.1101ZM47.4785 17.7577C46.4301 17.7577 45.4399 17.6485 44.508 17.4301C43.576 17.1971 42.8552 16.9205 42.3456 16.6001L43.8527 13.6951C44.406 14.0446 45.054 14.3139 45.7967 14.5032C46.5393 14.6925 47.2601 14.7872 47.959 14.7872C48.6434 14.7872 49.1312 14.7144 49.4225 14.5688C49.7137 14.4086 49.8593 14.1975 49.8593 13.9354C49.8593 13.7024 49.7064 13.5349 49.4006 13.433C49.1094 13.3165 48.7308 13.2218 48.2648 13.149C47.7989 13.0762 47.3038 12.9816 46.7796 12.8651C46.2699 12.7486 45.7821 12.5811 45.3161 12.3627C44.8502 12.1443 44.4643 11.8385 44.1585 11.4453C43.8673 11.0376 43.7216 10.4988 43.7216 9.82902C43.7216 8.88252 43.9983 8.08892 44.5517 7.44822C45.105 6.80751 45.8549 6.32698 46.8014 6.00663C47.7625 5.68628 48.84 5.5261 50.034 5.5261C50.8786 5.5261 51.6941 5.60619 52.4804 5.76637C53.2667 5.92654 53.9511 6.15953 54.5335 6.46532L53.0701 9.37033C52.4877 9.02086 51.8906 8.78787 51.279 8.67138C50.6675 8.54033 50.0923 8.4748 49.5535 8.4748C48.8691 8.4748 48.3813 8.56217 48.0901 8.73691C47.7989 8.91165 47.6532 9.12279 47.6532 9.37033C47.6532 9.58875 47.7989 9.76349 48.0901 9.89454C48.3959 10.011 48.7745 10.113 49.2259 10.2003C49.6919 10.2731 50.1869 10.3678 50.7112 10.4843C51.2354 10.5862 51.7232 10.7464 52.1746 10.9648C52.6405 11.1832 53.0191 11.489 53.3104 11.8822C53.6162 12.2753 53.7691 12.8068 53.7691 13.4767C53.7691 14.4086 53.4851 15.1949 52.9172 15.8356C52.3639 16.4763 51.614 16.9569 50.6675 17.2772C49.721 17.5976 48.658 17.7577 47.4785 17.7577ZM54.7929 17.5612L57.1519 5.72268H61.28L58.9211 17.5612H54.7929ZM59.7948 4.41215C59.0667 4.41215 58.4842 4.21557 58.0474 3.82241C57.6251 3.41469 57.414 2.92688 57.414 2.35898C57.414 1.68916 57.6542 1.12854 58.1348 0.677134C58.6299 0.225729 59.2778 2.69979e-05 60.0787 2.69979e-05C60.8068 2.69979e-05 61.3893 0.189326 61.8261 0.567923C62.2629 0.946522 62.4814 1.41977 62.4814 1.98767C62.4814 2.70118 62.2338 3.28364 61.7387 3.73504C61.2436 4.18645 60.5957 4.41215 59.7948 4.41215ZM66.9486 21.9951C65.7691 21.9951 64.6916 21.8641 63.716 21.602C62.7403 21.3544 61.8958 20.9758 61.1823 20.4662L63.0389 17.583C63.5048 17.947 64.0946 18.2383 64.8081 18.4567C65.5361 18.6897 66.2861 18.8062 67.0578 18.8062C68.1354 18.8062 68.929 18.5732 69.4386 18.1072C69.9483 17.6558 70.2905 17.0005 70.4652 16.1414L70.8365 14.3067L71.6665 11.2269L72.3218 7.88506L72.7368 5.72268H76.6902L74.7681 15.3769C74.3022 17.7213 73.3993 19.4105 72.0597 20.4443C70.7346 21.4782 69.0309 21.9951 66.9486 21.9951ZM67.2544 16.9496C66.3225 16.9496 65.4633 16.753 64.677 16.3598C63.8907 15.9521 63.2573 15.3769 62.7767 14.6343C62.3108 13.8771 62.0778 12.967 62.0778 11.904C62.0778 11.0158 62.238 10.1858 62.5583 9.41402C62.8932 8.64226 63.3519 7.96515 63.9344 7.38269C64.5314 6.80023 65.2231 6.34883 66.0094 6.02848C66.7957 5.69356 67.6476 5.5261 68.5649 5.5261C69.4386 5.5261 70.2104 5.69356 70.8802 6.02848C71.5646 6.36339 72.0742 6.91672 72.4092 7.68848C72.7586 8.46024 72.846 9.50867 72.6713 10.8338C72.5257 12.1297 72.2126 13.2364 71.7321 14.1538C71.2661 15.0566 70.6545 15.7483 69.8973 16.2288C69.1401 16.7093 68.2591 16.9496 67.2544 16.9496ZM68.4776 13.6296C69.0309 13.6296 69.5114 13.5131 69.9191 13.2801C70.3414 13.0471 70.6691 12.7195 70.902 12.2972C71.1496 11.8603 71.2734 11.358 71.2734 10.7901C71.2734 10.2076 71.0768 9.74165 70.6836 9.39217C70.305 9.02814 69.7663 8.84612 69.0673 8.84612C68.514 8.84612 68.0262 8.96989 67.6039 9.21744C67.1816 9.45042 66.8467 9.78533 66.5991 10.2222C66.3662 10.6445 66.2497 11.1395 66.2497 11.7074C66.2497 12.2899 66.4462 12.7559 66.8394 13.1053C67.2471 13.4548 67.7932 13.6296 68.4776 13.6296ZM86.7612 5.5261C87.7368 5.5261 88.5741 5.73725 89.273 6.15953C89.9866 6.56725 90.4962 7.17883 90.802 7.99427C91.1078 8.79515 91.1369 9.79989 90.8894 11.0085L89.5788 17.5612H85.4288L86.652 11.4017C86.8122 10.6445 86.7612 10.062 86.4991 9.65428C86.2515 9.24656 85.7856 9.0427 85.1012 9.0427C84.4022 9.0427 83.8125 9.26112 83.332 9.69796C82.8514 10.1348 82.5165 10.8046 82.3272 11.7074L81.1477 17.5612H76.9977L80.2304 1.35424H84.3804L82.8514 9.02086L82.087 8.08164C82.6549 7.19339 83.3538 6.54541 84.1838 6.13769C85.0284 5.72996 85.8875 5.5261 86.7612 5.5261ZM97.4483 17.7577C96.531 17.7577 95.7446 17.583 95.0894 17.2335C94.4341 16.8695 93.9681 16.3453 93.6915 15.6609C93.4148 14.9619 93.3711 14.1319 93.5604 13.1709L95.5699 3.07978H99.7199L97.7104 13.149C97.6376 13.6004 97.6886 13.9499 97.8633 14.1975C98.0381 14.4304 98.3366 14.5469 98.7589 14.5469C98.9773 14.5469 99.1884 14.5178 99.3923 14.4596C99.5962 14.4013 99.8 14.3139 100.004 14.1975L100.528 17.0588C100.091 17.3063 99.6034 17.4811 99.0647 17.583C98.5404 17.6995 98.0017 17.7577 97.4483 17.7577ZM92.5994 9.26112L93.2328 6.15953H101.795L101.183 9.26112H92.5994ZM106.606 17.7577C105.558 17.7577 104.567 17.6485 103.635 17.4301C102.704 17.1971 101.983 16.9205 101.473 16.6001L102.98 13.6951C103.534 14.0446 104.182 14.3139 104.924 14.5032C105.667 14.6925 106.388 14.7872 107.087 14.7872C107.771 14.7872 108.259 14.7144 108.55 14.5688C108.841 14.4086 108.987 14.1975 108.987 13.9354C108.987 13.7024 108.834 13.5349 108.528 13.433C108.237 13.3165 107.858 13.2218 107.392 13.149C106.926 13.0762 106.431 12.9816 105.907 12.8651C105.397 12.7486 104.91 12.5811 104.444 12.3627C103.978 12.1443 103.592 11.8385 103.286 11.4453C102.995 11.0376 102.849 10.4988 102.849 9.82902C102.849 8.88252 103.126 8.08892 103.679 7.44822C104.233 6.80751 104.982 6.32698 105.929 6.00663C106.89 5.68628 107.968 5.5261 109.162 5.5261C110.006 5.5261 110.822 5.60619 111.608 5.76637C112.394 5.92654 113.079 6.15953 113.661 6.46532L112.198 9.37033C111.615 9.02086 111.018 8.78787 110.407 8.67138C109.795 8.54033 109.22 8.4748 108.681 8.4748C107.997 8.4748 107.509 8.56217 107.218 8.73691C106.926 8.91165 106.781 9.12279 106.781 9.37033C106.781 9.58875 106.926 9.76349 107.218 9.89454C107.523 10.011 107.902 10.113 108.353 10.2003C108.819 10.2731 109.314 10.3678 109.839 10.4843C110.363 10.5862 110.851 10.7464 111.302 10.9648C111.768 11.1832 112.147 11.489 112.438 11.8822C112.744 12.2753 112.897 12.8068 112.897 13.4767C112.897 14.4086 112.613 15.1949 112.045 15.8356C111.491 16.4763 110.741 16.9569 109.795 17.2772C108.848 17.5976 107.786 17.7577 106.606 17.7577Z" fill="white"/>
</svg>
