<svg xmlns="http://www.w3.org/2000/svg" width="440" height="78" fill="none" aria-hidden="true" class="pointer-events-none absolute top-1/2 left-1/2 -translate-x-1/2 -translate-y-1/2"><path fill="#fff" d="M5.06 59.371c2.426.635 6.882.501 8.078-.201-2.693-.084-5.387-.403-8.077.201m425.012-32.647c-.322.053-.642.144-.967.155-3.084.103-6.17.164-9.252.304-.73.033-1.675.145-2.116.518-1.066.9-2.323 1.048-3.745 1.11-1.945.083-2.258.308-3.342 1.97 2.435 1.105 5.134.346 7.605.742l-1.347.851c1.28.37 2.236.842 3.23.899 2.749.156 5.514.14 8.272.195.767.015 1.545-.013 2.299.076 1.967.233 3.765-.214 5.795-.665l-1.084-1.077H440c-.671 1.941-.852 2.066-3.146 2.13-1.92.053-3.841.079-5.759.169-.682.033-1.428.105-2.016.35-2.291.961-4.724.992-7.205.847-.381-.022-.848-.201-1.127-.086-2.203.906-4.569.261-6.819.523-1.604.187-3.144.72-4.712 1.099l.013.426c.827.147 1.653.304 2.483.44 3.207.522 6.312 1.344 9.716 1.105 3.209-.226 6.464-.05 10.145-.05-.663.28-.948.49-1.26.517-3.218.286-6.437.57-9.662.789-.989.067-2-.075-3.002-.108-1.152-.038-2.322-.176-3.455-.072-4.597.424-9.179.943-13.772 1.384-1.447.139-2.918.12-4.374.217-1.454.097-2.926.165-4.348.4-1.091.18-1.955.697-1.799 1.974 4.862.148 9.659-.188 14.796-.553-1.187 1.245-2.735 1.264-4.031 1.398-6.648.683-13.315 1.245-19.975 1.853-.305.027-.639.02-.904.12-.248.095-.605.32-.591.471.022.261.22.638.48.732.46.166 1.022.207 1.543.212 2.153.02 4.307.009 6.621.009l-1.14 1.888c1.886.786 3.756.31 5.543.403 1.728.09 3.471.02 5.222.247-4.2.866-8.669.062-12.777 1.305-.228 1.013.342 1.332 1.376 1.345 1.7.02 3.398.074 5.096.072 4.48-.006 8.96-.065 13.439-.036 1.219.009 2.432.269 3.654.386 1.68.162 3.364.425 5.046.42 5.861-.015 11.72-.138 17.581-.189.903-.008 1.809.142 2.72.388-2.871.837-5.913.512-8.848.85-3.002.342-6.04.483-9.063.713l-.044.487c.526.085 1.053.241 1.579.243 3.849.008 7.698-.033 11.547-.02 1.897.006 3.836-.227 6.098.505l-13.498.72c.254 1.723-1.142 2.154-2.909 2.334a391 391 0 0 0-8.011.903c-1.14.14-2.293.302-3.381.592-.636.17-1.154.612-1.64 1.145 2.208.616 4.398.366 6.75.388-.467.9-1.374.864-2.11.924-2.535.203-5.079.324-7.614.52a22 22 0 0 0-2.944.443c-.262.057-.583.46-.555.677.03.223.425.552.714.59.904.122 1.832.13 3.176.204-2.776 1.046-5.497.85-8.012 1.351-2.46.49-4.905 1.02-7.334 1.703 1.791.593 3.564.271 5.372.092a27 27 0 0 1 5.819.068c-.325.135-.642.371-.977.387-2.683.128-5.396.067-8.053.344-7.574.79-15.221.5-22.805 1.145-14.445 1.227-28.967 1.503-43.47 1.99-2.775.093-5.557.014-8.336.055-.991.015-1.979.149-2.968.233-.374.032-.75.123-1.119.109-2.143-.086-4.285-.273-6.428-.282-8.726-.033-17.453.003-26.18-.024-3.769-.011-7.538-.111-11.307-.167-.309-.004-.631-.013-.923.05-4.633 1.006-9.358.384-14.035.448-12.202.166-24.406.186-36.61.258-8.342.05-16.686.083-25.028.133-5.552.034-11.103.095-16.656.12q-17.368.084-34.737.134c-5.175.016-10.35-.029-15.524-.002-1.204.006-2.409.19-3.616.293-.294.91.127 1.368.968 1.53.74.142 1.526.161 2.293.183 5.094.142 10.189.267 15.284.409.272.008.541.107.814.516-2.456.134-4.912.378-7.367.379-6.328.004-12.656-.09-18.985-.164-4.473-.05-8.95-.054-13.417-.215-7.395-.266-14.794-.55-22.175-1.002-6.229-.38-12.43-1.037-18.65-1.527-9.52-.752-19.048-1.457-28.57-2.201-1.842-.143-3.676-.358-5.507-.572-.497-.058-.972-.237-1.457-.36l-.008-.375c.841-.046 1.692-.173 2.526-.125 3.688.214 7.371.48 11.057.729.153.01.308.075.455.062 2.327-.18 4.653-.37 6.92-.553-1.095-.675-3.838-1.049-8.94-1.349-3.232-.19-6.446-.543-9.671-.804-3.086-.249-6.176-.474-9.264-.709l-.014-.422 5.83-.39c-1.7-1.684-4.002-.484-5.912-1.288 1.97-.642 4.03.07 5.811-.93-1.483-.757-2.955-.435-4.365-.501a52 52 0 0 1-4.366-.38c-1.353-.18-2.813.547-4.089-.361 6.175-.004 12.275-.65 18.428-.74l.062-.454c-.35-.162-.678-.426-1.05-.47a98 98 0 0 0-4.984-.476c-3.369-.226-6.676-.835-10.101-.761-2.379.05-4.768-.317-7.156-.431-1.786-.086-3.174-.633-4.32-1.962.538-.184.965-.439 1.414-.465 3.074-.187 6.15-.323 9.227-.479 2.23-.113 4.406-.21 6.31-1.429.737-.47 2.023-.487 3.077-.56 6.064-.411 12.131-.794 18.2-1.158 4.303-.257 8.61-.499 12.92-.684 1.297-.056 2.61.143 3.916.153a64 64 0 0 0 4.377-.112c.888-.054 1.602-.376 1.677-1.485l-10.654-.501c1.099-1.312 2.717-1.798 4.566-1.965 3.804-.343 7.574-.964 11.438-.846.636.02 1.28-.12 1.922-.187l.029-.358c-.37-.11-.748-.334-1.107-.317-2.379.11-4.753.277-7.129.416-4.46.262-8.92.534-13.383.773-2.305.124-4.616.272-6.922.254-2.308-.019-4.62-.162-6.658-1.23-.407-.212-1.037-.16-1.562-.234-4.474-.635-8.948-1.268-13.418-1.917-.185-.026-.336-.207-.547-.345.78-.686 1.56-.247 2.36-.149 2.793.341 5.604.852 8.392-.008a4.8 4.8 0 0 0 1.699-.935c-5.485-.037-10.822-.59-16.137-1.72.477-.101.947-.25 1.432-.29.767-.065 1.55-.014 2.314-.092.934-.094 2.217.222 2.533-.83.31-1.028-1.104-.974-1.74-1.413-.049-.034-.068-.093-.134-.184l1.691-1.011-2.853-.563c.244-.332.37-.764.645-.834 1.097-.276 2.243-.43 3.367-.644 2.443-.465 4.885-.938 7.611-1.462-.962-.958-2.075-1.108-2.897-.99-1.377.195-2.996-.15-4.12.87-.123.11-.507.074-.765.055-.35-.025-.765-.224-1.035-.133-3.392 1.143-6.826.507-10.222.111-1.042-.122-1.996-.718-3.225-1.186 2.46-.826 6.726-1.501 8.613-1.447 1.306.038 2.507-.242 4.163-.887-2.756-.645-5.022.174-7.491-.067 1.068-1.155 2.277-1.966 3.892-2.165 2.353-.29 3.342-1.932 5.162-2.724l-.114-.404c-1.244-.05-2.54.048-3.72-.196-1.155-.237-2.193-.824-3.34-1.282l1.118-2.49c-1.866-.703-2.533 1.332-4.239 1.019l-1.195-1.373c.873-2.637 4.176-3.195 6.659-4.467l-.205-.328c-.338-.025-.678-.085-1.012-.067-.37.021-.731.114-1.215.194l-1.049-2.279c1.524-.48 3.015-.945 4.498-1.423 1.36-.44 3.115.386 4.341-.828-.644-.882-1.746-.73-2.67-.818-.866-.082-1.754-.018-2.73-.317 2.301-.763 4.651-1.445 6.893-2.303 4.957-1.897 10.398-2.262 15.668-3.117A604 604 0 0 1 60.289 4.32c7.395-.925 14.812-1.793 22.258-2.4 7.666-.626 15.376-.897 23.066-1.343 1.488-.087 2.821.457 4.411.316 2.482-.219 5.048.195 7.58.257 1.376.033 2.765-.06 4.136-.183 2.91-.263 5.812-.587 8.718-.878.381-.038.861-.16 1.139-.032 2.286 1.06 4.686.304 7.033.327.875.007 1.751 0 2.626 0l.074.37q-1.321.495-2.642.994l.074.364c1.01.05 2.025.076 3.032.155.993.078 1.977.286 2.968.306 3.311.07 6.626.149 9.935.097 4.542-.071 9.081-.307 13.625-.378 3.139-.05 6.284.058 9.425.094.31.004.62.015.925-.01 6.834-.577 13.677-.585 20.536-.3 2.578.107 5.177-.102 7.767-.119 5.997-.037 11.994-.045 17.992-.063.309-.002.624-.02.926.018 9.812 1.225 19.72.828 29.588 1.048 15.671.348 31.346.58 47.02.832 4.162.067 8.327.03 12.489.028 1.656-.001 1.95.264 1.928 1.546-.006.349.411.702.686 1.134l-1.249.086c-2.147.144-4.292.281-6.437.436-.3.023-.655.063-.878.201-2.107 1.3-4.446.988-6.794.645-.966-.14-3.131.34-4.288.794-.469.183-1.222.18-1.714.016-1.536-.51-3.081-.723-5.138-.487l-.77 1.602c1.156.13 2.126.32 3.102.336 10.882.18 21.766.298 32.647.513 3.467.068 6.922.466 10.388.559 5.475.146 10.957.12 16.434.25 2.769.067 5.53.371 8.299.473q8.908.326 17.822.546c6.792.168 13.586.286 20.38.413 1.523.028 3.047.004 4.485.004.484.779.247 1.216-.64 1.338-.601.084-1.234.02-1.843.08-.378.04-.739.192-1.085.448 2.514.733 5.192.039 7.701.48l.011.436c-.953.1-1.902.24-2.86.292-3.141.17-6.285.302-9.427.464-.535.027-1.102.06-1.588.217-2.649.853-5.443.9-8.214.817-5.098-.154-10.138.312-15.197.628-1.921.12-3.861.03-5.789.091-.705.022-1.4.203-2.101.311l.008.392c.388.103.772.285 1.163.296 7.084.2 14.169.376 21.253.57 1.002.028 2.003.2 3 .175 1.377-.034 2.452.416 3.101 1.27.493.65 1.062.759 1.887.753 1.464-.008 2.931.026 4.397.072 1.112.035 2.299-.174 3.091.81.207.26.992.27 1.523.322 1.833.179 3.681.51 5.502.44 2.246-.089 3.846.883 5.515 1.7.861.42 1.622.547 2.565.575 4.473.127 8.944.3 13.416.462.259.01.516.073.775.112q.007.143.015.286"></path></svg>